<svg xmlns="http://www.w3.org/2000/svg" xmlns:xlink="http://www.w3.org/1999/xlink" width="249" height="84" viewBox="0 0 249 84">
  <defs>
    <filter id="iconmonstr-plus-2" x="36.045" y="19.598" width="45.031" height="45.031" filterUnits="userSpaceOnUse">
      <feOffset dy="3" input="SourceAlpha"/>
      <feGaussianBlur stdDeviation="3" result="blur"/>
      <feFlood flood-opacity="0.161"/>
      <feComposite operator="in" in2="blur"/>
      <feComposite in="SourceGraphic"/>
    </filter>
    <filter id="Rectangle_227" x="0" y="0" width="249" height="84" filterUnits="userSpaceOnUse">
      <feOffset dy="3" input="SourceAlpha"/>
      <feGaussianBlur stdDeviation="5" result="blur-2"/>
      <feFlood flood-opacity="0.31"/>
      <feComposite operator="in" in2="blur-2"/>
      <feComposite in="SourceGraphic"/>
    </filter>
    <filter id="iconmonstr-plus-2-2" x="49.045" y="19.598" width="45.031" height="45.031" filterUnits="userSpaceOnUse">
      <feOffset dy="3" input="SourceAlpha"/>
      <feGaussianBlur stdDeviation="3" result="blur-3"/>
      <feFlood flood-opacity="0.161"/>
      <feComposite operator="in" in2="blur-3"/>
      <feComposite in="SourceGraphic"/>
    </filter>
  </defs>
  <g id="Group_328" data-name="Group 328" transform="translate(-65.09 -661)">
    <g transform="matrix(1, 0, 0, 1, 65.09, 661)" filter="url(#iconmonstr-plus-2)">
      <path id="iconmonstr-plus-2-3" data-name="iconmonstr-plus-2" d="M27.032,11.263H15.769V0H11.263V11.263H0v4.505H11.263V27.032h4.505V15.769H27.032Z" transform="translate(45.04 25.6)" fill="#fff"/>
    </g>
    <text id="Add_a_new_wallet" data-name="Add a new wallet" transform="translate(209 705)" fill="#fff" font-size="15" font-family="Roboto-Medium, Roboto" font-weight="500"><tspan x="-56.869" y="0">Add a new wallet</tspan></text>
    <g transform="matrix(1, 0, 0, 1, 65.09, 661)" filter="url(#Rectangle_227)">
      <rect id="Rectangle_227-2" data-name="Rectangle 227" width="219" height="54" rx="27" transform="translate(15 12)" fill="#a7a7a7"/>
    </g>
    <g transform="matrix(1, 0, 0, 1, 65.09, 661)" filter="url(#iconmonstr-plus-2-2)">
      <path id="iconmonstr-plus-2-4" data-name="iconmonstr-plus-2" d="M27.032,11.263H15.769V0H11.263V11.263H0v4.505H11.263V27.032h4.505V15.769H27.032Z" transform="translate(58.04 25.6)" fill="#fff"/>
    </g>
    <text id="Create_Wallet" data-name="Create Wallet" transform="translate(211 705)" fill="#fff" font-size="15" font-family="Roboto-Medium, Roboto" font-weight="500"><tspan x="-44.817" y="0">Create Wallet</tspan></text>
  </g>
</svg>
