<svg xmlns="http://www.w3.org/2000/svg" xmlns:xlink="http://www.w3.org/1999/xlink" width="1500" height="800" viewBox="0 0 1500 800">
  <defs>
    <clipPath id="clip-Artboard_15">
      <rect width="1500" height="800"/>
    </clipPath>
  </defs>
  <g id="Artboard_15" data-name="Artboard – 15" clip-path="url(#clip-Artboard_15)">
    <rect width="1500" height="800" fill="#f59e19"/>
    <path id="btc" d="M189.555,379.109C84.861,379.109,0,294.248,0,189.555S84.861,0,189.555,0,379.109,84.861,379.109,189.555,294.248,379.109,189.555,379.109ZM274.724,166.1c3.72-24.832-15.2-38.183-41.05-47.092l8.388-33.646-20.472-5.094-8.175,32.757c-5.379-1.351-10.9-2.606-16.408-3.862l8.234-32.971-20.472-5.106-8.388,33.634c-4.455-1.019-8.838-2.014-13.079-3.08l.024-.107-28.244-7.049-5.45,21.87s15.2,3.483,14.88,3.7c8.293,2.073,9.786,7.558,9.537,11.918L144.5,170.291a18.209,18.209,0,0,1,2.132.675l-2.168-.533-13.387,53.691c-1.019,2.512-3.59,6.291-9.395,4.857.213.3-14.88-3.708-14.88-3.708L96.637,248.708l26.656,6.646c4.952,1.244,9.809,2.547,14.584,3.767l-8.471,34.025,20.46,5.094,8.388-33.646c5.592,1.5,11.018,2.9,16.325,4.229l-8.364,33.5,20.472,5.094,8.471-33.954c34.925,6.611,61.179,3.945,72.232-27.639,8.909-25.424-.438-40.1-18.813-49.663,13.387-3.08,23.457-11.883,26.147-30.068Zm-46.8,65.61c-6.315,25.436-49.142,11.681-63.027,8.234l11.255-45.078C190.04,198.333,234.55,205.193,227.928,231.707Zm6.338-65.977c-5.77,23.137-41.406,11.373-52.957,8.494L191.5,133.352c11.551,2.879,48.787,8.246,42.768,32.378Z" transform="translate(979.445 -34.555)" fill="#fff" fill-rule="evenodd" opacity="0.32"/>
  </g>
</svg>
