<svg xmlns="http://www.w3.org/2000/svg" xmlns:xlink="http://www.w3.org/1999/xlink" width="1500" height="800" viewBox="0 0 1500 800">
  <defs>
    <clipPath id="clip-Artboard_14">
      <rect width="1500" height="800"/>
    </clipPath>
  </defs>
  <g id="Artboard_14" data-name="Artboard – 14" clip-path="url(#clip-Artboard_14)">
    <rect width="1500" height="800" fill="#8a3eff"/>
    <g id="Group_264" data-name="Group 264" transform="translate(190.687 5.687)">
      <g id="eth" transform="translate(788.643 -33.357)" opacity="0.32">
        <path id="Path_334" data-name="Path 334" d="M189.612,379.225C84.887,379.225,0,294.338,0,189.612S84.887,0,189.612,0,379.225,84.887,379.225,189.612,294.338,379.225,189.612,379.225Zm94.735-187.017L195.514,47.4,106.657,192.219l88.857,51.586Zm.071,16.555-88.9,51.563-88.857-51.551,88.857,122.987Z" fill="#fff" fill-rule="evenodd"/>
        <g id="Group_250" data-name="Group 250" transform="translate(105.969 47.75)">
          <path id="Path_335" data-name="Path 335" d="M16.5,4V109.885l89.495,39.99Z" transform="translate(73.008 -4)" fill="rgba(255,255,255,0.5)"/>
          <path id="Path_336" data-name="Path 336" d="M98.506,4,9,149.875l89.507-39.99Z" transform="translate(-9 -4)" fill="#fff" opacity="0.8"/>
          <path id="Path_337" data-name="Path 337" d="M16.5,69.568v71.947l89.554-123.9Z" transform="translate(73.008 142.152)" fill="rgba(255,255,255,0.5)"/>
          <path id="Path_338" data-name="Path 338" d="M98.506,141.514V69.556L9,17.616Z" transform="translate(-9 142.152)" fill="#fff" opacity="0.796"/>
          <path id="Path_339" data-name="Path 339" d="M9,52.838,98.507,104.8V12.872Z" transform="translate(-9 91.527)" fill="rgba(255,255,255,0.5)"/>
        </g>
      </g>
    </g>
  </g>
</svg>
